HIERARCHY
ROOT Hips
{
	OFFSET 0.00000 0.00000 0.00000
	CHANNELS 6 Xposition Yposition Zposition Zrotation Yrotation Xrotation 
	JOINT LHipJoint
	{
		OFFSET 0 0 0
		CHANNELS 3 Zrotation Yrotation Xrotation
		JOINT LeftUpLeg
		{
			OFFSET 1.35324 -1.81393 0.86676
			CHANNELS 3 Zrotation Yrotation Xrotation
			JOINT LeftLeg
			{
				OFFSET 2.44396 -6.71474 0.00000
				CHANNELS 3 Zrotation Yrotation Xrotation
				JOINT LeftFoot
				{
					OFFSET 2.78389 -7.64869 0.00000
					CHANNELS 3 Zrotation Yrotation Xrotation
					JOINT LeftToeBase
					{
						OFFSET 0.15837 -0.43512 1.94704
						CHANNELS 3 Zrotation Yrotation Xrotation
						End Site
						{
							OFFSET 0.00000 -0.00000 1.00735
						}
					}
				}
			}
		}
	}
	JOINT RHipJoint
	{
		OFFSET 0 0 0
		CHANNELS 3 Zrotation Yrotation Xrotation
		JOINT RightUpLeg
		{
			OFFSET -1.14956 -1.81393 0.86676
			CHANNELS 3 Zrotation Yrotation Xrotation
			JOINT RightLeg
			{
				OFFSET -2.55632 -7.02343 0.00000
				CHANNELS 3 Zrotation Yrotation Xrotation
				JOINT RightFoot
				{
					OFFSET -2.63038 -7.22691 0.00000
					CHANNELS 3 Zrotation Yrotation Xrotation
					JOINT RightToeBase
					{
						OFFSET -0.22277 -0.61205 2.06087
						CHANNELS 3 Zrotation Yrotation Xrotation
						End Site
						{
							OFFSET -0.00000 -0.00000 1.07867
						}
					}
				}
			}
		}
	}
	JOINT LowerBack
	{
		OFFSET 0 0 0
		CHANNELS 3 Zrotation Yrotation Xrotation
		JOINT Spine
		{
			OFFSET -0.05682 2.18266 -0.21665
			CHANNELS 3 Zrotation Yrotation Xrotation
			JOINT Spine1
			{
				OFFSET 0.08791 2.18267 0.00700
				CHANNELS 3 Zrotation Yrotation Xrotation
				JOINT Neck
				{
					OFFSET 0 0 0
					CHANNELS 3 Zrotation Yrotation Xrotation
					JOINT Neck1
					{
						OFFSET -0.14851 1.58495 0.25390
						CHANNELS 3 Zrotation Yrotation Xrotation
						JOINT Head
						{
							OFFSET 0.13566 1.62237 -0.28476
							CHANNELS 3 Zrotation Yrotation Xrotation
							End Site
							{
								OFFSET 0.05601 1.65818 -0.12921
							}
						}
					}
				}
				JOINT LeftShoulder
				{
					OFFSET 0 0 0
					CHANNELS 3 Zrotation Yrotation Xrotation
					JOINT LeftArm
					{
						OFFSET 3.23337 0.97114 -0.51072
						CHANNELS 3 Zrotation Yrotation Xrotation
						JOINT LeftForeArm
						{
							OFFSET 5.19964 -0.00068 -0.00051
							CHANNELS 3 Zrotation Yrotation Xrotation
							JOINT LeftHand
							{
								OFFSET 3.32189 -0.00000 0.00000
								CHANNELS 3 Zrotation Yrotation Xrotation
								JOINT LeftFingerBase
								{
									OFFSET 0 0 0
									CHANNELS 3 Zrotation Yrotation Xrotation
									JOINT LeftHandIndex1
									{
										OFFSET 0.64562 -0.00000 0.00000
										CHANNELS 3 Zrotation Yrotation Xrotation
										End Site
										{
											OFFSET 0.52051 -0.00000 0.00000
										}
									}
								}
								JOINT LThumb
								{
									OFFSET 0 0 0
									CHANNELS 3 Zrotation Yrotation Xrotation
									End Site
									{
										OFFSET 0.52846 -0.00000 0.52846
									}
								}
							}
						}
					}
				}
				JOINT RightShoulder
				{
					OFFSET 0 0 0
					CHANNELS 3 Zrotation Yrotation Xrotation
					JOINT RightArm
					{
						OFFSET -2.95712 1.24697 -0.52388
						CHANNELS 3 Zrotation Yrotation Xrotation
						JOINT RightForeArm
						{
							OFFSET -5.65950 -0.00000 -0.00000
							CHANNELS 3 Zrotation Yrotation Xrotation
							JOINT RightHand
							{
								OFFSET -3.37604 -0.00000 -0.00000
								CHANNELS 3 Zrotation Yrotation Xrotation
								JOINT RightFingerBase
								{
									OFFSET 0 0 0
									CHANNELS 3 Zrotation Yrotation Xrotation
									JOINT RightHandIndex1
									{
										OFFSET -0.82470 -0.00000 -0.00000
										CHANNELS 3 Zrotation Yrotation Xrotation
										End Site
										{
											OFFSET -0.66490 -0.00000 -0.00000
										}
									}
								}
								JOINT RThumb
								{
									OFFSET 0 0 0
									CHANNELS 3 Zrotation Yrotation Xrotation
									End Site
									{
										OFFSET -0.67505 -0.00000 0.67505
									}
								}
							}
						}
					}
				}
			}
		}
	}
}
MOTION
Frames: 8
Frame Time: 0.0740741
0.00 0.00 0.00 0 0 0 0 0 0 -21 0 0 0 0 0 0 0 0 0 0 0 0 0 0 21 0 0 0 0 0 0 0 0 0 0 0 0 0 0 0 0 0 0 0 0 0 0 -16 0 0 21 0 0 11 0 0 0 -8 0 0 0 0 0 0 0 0 0 0 0 0 0 0 0 0 0 0 0 0 8 0 0 0 0 0 0 0 0 0 0 0 0 0 0 0 0 0
0.00 0.00 0.00 -0.7348 -41.1697 4.2298 0.0000 0.0000 0.0000 -22.2005 -3.1216 -16.5318 3.8180 11.9142 35.4292 1.5127 5.2260 -25.6275 0.1672 2.6344 7.2625 0.0000 0.0000 0.0000 8.2821 14.3868 -20.0955 -3.7001 -11.7503 34.8542 -0.5516 1.4543 -13.6040 -0.0703 -1.7102 4.7054 -6.2035 -0.8717 6.4922 3.1054 -1.5215 1.6867 6.8629 -0.7608 -1.6426 -13.1742 -1.6222 -9.6229 11.9651 -3.3906 28.9248 6.3384 -1.7477 11.3190 0.0000 -0.0000 0.0000 -86.0342 -10.3583 3.3515 12.9801 -21.2580 -2.4461 -0.0000 -0.0000 15.9672 3.7573 30.6428 1.9171 -7.1250 0.0000 -0.0000 -30.6299 57.9325 -10.3275 0.0000 -0.0000 0.0000 82.5472 -3.3610 0.6347 -18.6496 28.9809 -4.8599 0.0000 -0.0000 -15.6536 -13.0674 15.6705 -3.5874 7.1250 -0.0000 -0.0000 9.8015 -14.0793 7.2313
0.00 0.00 0.00 -4.8846 -46.1301 14.0108 0.0000 0.0000 0.0000 -21.8872 -1.9648 -16.6658 3.5876 11.5905 34.2982 2.5187 6.7965 -32.9734 0.1509 2.5028 6.8974 0.0000 0.0000 0.0000 9.6783 11.6984 -32.3819 -7.1165 -15.4292 49.3137 -0.5312 3.1337 -13.0524 -0.1223 -2.2542 6.2088 -6.7104 -2.1130 7.5492 2.9006 -3.2758 2.3421 7.0838 -1.6806 -1.2400 -10.9848 -0.5134 -9.2368 14.6113 -2.7041 25.2560 6.8141 -0.9186 9.7463 0.0000 -0.0000 0.0000 -84.5828 -26.5295 6.0490 13.9854 -22.7139 -2.8225 -0.0000 -0.0000 11.2052 4.6192 31.9364 2.4473 -7.1250 0.0000 -0.0000 -30.9256 59.2246 -11.4199 0.0000 -0.0000 0.0000 85.9123 -3.8753 0.8237 -20.5156 31.2585 -5.7965 0.0000 -0.0000 -13.7643 -11.5500 17.4815 -3.5130 7.1250 -0.0000 -0.0000 10.8078 -12.3934 8.3906
0.00 0.00 0.00 -9.6514 -38.6705 19.1194 0.0000 0.0000 0.0000 -12.9799 -0.8393 -18.2976 7.1309 15.4411 49.3677 2.5501 2.0086 -30.9702 1.0099 -6.3942 -17.9325 0.0000 0.0000 0.0000 17.7603 11.2746 -28.3053 -9.9708 -17.3934 59.3908 -1.1206 -2.7521 -21.1631 -0.2436 3.1761 -8.7693 -4.2921 -2.4051 9.1054 4.1926 -3.4962 1.6688 7.2140 -1.7187 -2.8372 -11.8537 -1.9370 -9.4654 17.3721 -5.3123 25.4390 7.7889 -1.9387 10.3671 0.0000 -0.0000 0.0000 -66.2709 -23.5461 -10.3653 14.3700 -23.2612 -2.9727 -0.0000 -0.0000 10.4041 5.9042 31.6159 3.1031 -7.1250 0.0000 -0.0000 -29.3590 59.2413 -10.7874 0.0000 -0.0000 0.0000 81.6175 -1.0517 7.6626 -27.3217 38.4842 -9.6986 0.0000 -0.0000 -18.0280 -12.4583 17.0928 -3.7154 7.1250 -0.0000 -0.0000 10.2091 -12.7031 7.8426
0.00 0.00 0.00 -10.5888 -35.7199 20.0585 0.0000 0.0000 0.0000 -8.5565 -1.3345 -27.8951 11.8085 18.3085 65.3805 0.9006 -0.5238 -17.7687 0.2719 -3.3541 -9.2661 0.0000 0.0000 0.0000 19.4784 9.8227 -28.1732 -10.5901 -17.7286 61.4432 -1.0645 -2.4479 -20.5157 -0.3349 3.7190 -10.2873 -2.8486 -2.6471 9.9097 4.9323 -3.6615 1.4832 7.2596 -1.7900 -3.4952 -13.4775 -2.5677 -9.3956 18.2771 -6.0175 24.7695 8.3370 -2.3287 10.3192 0.0000 0.0000 0.0000 -60.9025 -22.0570 -15.6069 14.1817 -22.9938 -2.8987 -0.0000 -0.0000 11.4616 5.2185 30.7379 2.6727 -7.1250 0.0000 -0.0000 -29.2756 58.3311 -10.1026 0.0000 0.0000 0.0000 78.6922 1.5412 9.7271 -29.2519 40.2435 -10.9231 0.0000 -0.0000 -18.4350 -13.8754 16.9124 -4.1102 7.1250 -0.0000 -0.0000 9.2707 -12.7567 7.0904
0.00 0.00 0.00 -12.7152 -33.3263 20.2304 0.0000 0.0000 0.0000 -3.5441 0.7398 -39.9059 17.5063 19.8503 82.6915 0.6577 -4.7946 -14.4475 0.5106 -4.5805 -12.7158 0.0000 0.0000 0.0000 22.4115 7.6031 -25.0547 -10.8110 -17.8414 62.1664 -1.1132 -2.6325 -21.0394 -0.7441 5.5101 -15.3694 0.4663 -1.7192 11.3330 5.1597 -2.0408 1.9073 5.4628 -1.0178 -4.1825 -13.7784 -4.1868 -9.7981 19.1451 -8.2612 23.5246 8.3906 -3.2833 10.4673 0.0000 -0.0000 0.0000 -52.0795 -21.9935 -21.3638 12.7859 -20.9728 -2.3761 -0.0000 -0.0000 17.0075 4.2864 28.7663 2.0658 -7.1250 0.0000 -0.0000 -28.6005 56.4232 -8.4954 0.0000 -0.0000 0.0000 73.9799 6.1374 9.9089 -32.5719 42.9984 -13.1292 0.0000 -0.0000 -19.0772 -13.4835 16.9932 -4.0085 7.1250 -0.0000 -0.0000 9.5310 -12.7113 7.3044
0.00 0.00 0.00 -14.9053 -31.5155 21.7998 0.0000 0.0000 0.0000 -0.2420 2.6558 -62.5875 18.5244 19.9477 85.6819 0.4898 -10.0497 -13.3799 0.2812 -3.4105 -9.4237 0.0000 0.0000 0.0000 25.9381 4.4838 -11.8315 -6.7660 -15.1317 47.9838 -0.8412 -5.0477 -19.8697 -1.2602 7.1161 -20.0599 3.1818 0.2540 10.7988 5.1091 0.9110 1.3392 3.4289 0.4085 -4.6972 -14.4612 -6.8434 -9.3274 21.3761 -12.3978 22.0920 8.7611 -5.0948 10.9599 0.0000 -0.0000 0.0000 -35.4205 -13.4463 -28.5518 14.4977 -23.4417 -3.0233 -0.0000 -0.0000 13.5737 -0.4185 34.0580 -0.2344 -7.1250 0.0000 -0.0000 -37.9231 59.8046 -14.9892 0.0000 -0.0000 0.0000 62.8423 17.6776 9.0469 -51.4035 53.5461 -27.2990 0.0000 -0.0000 -19.2336 -15.8732 15.5093 -4.3481 7.1250 -0.0000 -0.0000 7.9163 -13.9962 5.8236
0.00 0.00 0.00 -18.1153 -30.5076 23.3639 0.0000 0.0000 0.0000 2.5846 0.2254 -64.3529 13.0431 18.7977 69.2595 0.1250 -11.7776 -9.9267 0.6681 -5.2272 -14.5576 0.0000 0.0000 0.0000 27.2743 0.6645 -1.3542 -3.3144 -11.1874 32.9145 0.0860 -5.5683 -4.1700 -0.8610 5.9171 -16.5442 4.3918 0.9145 9.5895 7.0720 1.9959 0.2744 4.6963 0.9299 -5.2196 -16.0316 -7.8023 -7.8183 21.8349 -14.1465 23.4268 9.1090 -6.0725 11.7342 -0.0000 -0.0000 0.0000 -32.5964 -6.0387 -37.4680 14.9123 -24.0238 -3.1902 -0.0000 -0.0000 11.6716 3.0384 35.0359 1.7454 -7.1250 0.0000 -0.0000 -35.6160 61.4159 -15.3068 -0.0000 -0.0000 0.0000 56.1431 21.6618 9.5993 -66.1113 57.7299 -39.4695 0.0000 -0.0000 -19.0288 -15.8320 18.4348 -5.1242 7.1250 -0.0000 -0.0000 8.0182 -11.0144 6.4032
